[Header]
FileType HTR
DataType HTRS
FileVersion 1
NumSegments 22
NumFrames 4
DataFrameRate 24
EulerRotationOrder ZYX
CalibrationUnits mm
RotationUnits Degrees
GlobalAxisofGravity Y
BoneLengthAxis Y
ScaleFactor 1.0
[SegmentNames&Hierarchy]
reference	GLOBAL
Hips	reference
Spine	Hips
Spine1	Spine
Neck	Spine1
Head	Neck
LeftShoulder	Spine1
LeftArm	LeftShoulder
LeftForeArm	LeftArm
LeftHand	LeftForeArm
RightShoulder	Spine1
RightArm	RightShoulder
RightForeArm	RightArm
RightHand	RightForeArm
LeftUpLeg	Hips
LeftLeg	LeftUpLeg
LeftFoot	LeftLeg
LeftToeBase	LeftFoot
RightUpLeg	Hips
RightLeg	RightUpLeg
RightFoot	RightLeg
RightToeBase	RightFoot
[BasePosition]
reference	0	0	0	0	0	0	1
Hips	0	0	0	0	0	0	1
Spine	0	0	0	0	-0	90	1
Spine1	0	0	0	0	0	0	1
Neck	0	0	0	-7.352327771	-7.352327771	90	1
Head	0	0	0	0	-0	90	1
LeftShoulder	0	0	0	0	0	0	1
LeftArm	0	0	0	0	0	0	1
LeftForeArm	0	0	0	0	0	0	1
LeftHand	0	0	0	0	0	0	1
RightShoulder	0	0	0	0	-0	180	1
RightArm	0	0	0	0	-0	180	1
RightForeArm	0	0	0	0	-0	180	1
RightHand	0	0	0	0	-0	180	1
LeftUpLeg	0	0	0	0	-0	-90	1
LeftLeg	0	0	0	0	-0	-90	1
LeftFoot	0	0	0	66.57146043	-66.57146043	-90	1
LeftToeBase	0	0	0	0	-90	0	1
RightUpLeg	0	0	0	0	-0	-90	1
RightLeg	0	0	0	0	-0	-90	1
RightFoot	0	0	0	66.57146043	-66.57146043	-90	1
RightToeBase	0	0	0	0	-90	0	1
[reference]
10	0	0	0	0	-0	0	1.0
11	0	0	0	0	-0	0	1.0
12	0	0	0	0	-0	0	1.0
13	0	0	0	0	-0	0	1.0
[Hips]
10	4.268362999	8.377349854	1.132451057	4.830724716	-129.6226196	-1.986860275	1.0
11	4.284622192	8.377349854	1.129125118	4.79362011	-129.4212646	-2.042669773	1.0
12	4.299523354	8.377349854	1.125800014	4.715415955	-129.3523254	-2.010505199	1.0
13	4.314353943	8.377349854	1.122477293	4.62298584	-129.3811646	-2.057937622	1.0
[Spine]
10	0	0.7457100153	0	-10.78349304	0.6430607438	-90.36093903	1.0
11	0	0.7457100153	0	-10.76603031	0.5558414459	-90.33220673	1.0
12	0	0.7457100153	0	-10.64696121	0.5309833884	-90.2703476	1.0
13	0	0.7457100153	0	-10.57709026	0.5884514451	-90.19419098	1.0
[Spine1]
10	0	2.140589952	0	7.701935768	0.1423454434	1.12798667	1.0
11	0	2.140589952	0	7.780325413	0.1063073426	1.159202099	1.0
12	0	2.140589952	0	7.764531136	0.1077630892	1.174668193	1.0
13	0	2.140589952	0	7.696090698	0.1256390065	1.091092348	1.0
[Neck]
10	0	2.32246995	0	-11.53036785	15.87067318	-91.38587952	1.0
11	0	2.32246995	0	-11.66488647	15.85863304	-91.63559723	1.0
12	0	2.32246995	0	-11.64890099	15.88643837	-91.6075592	1.0
13	0	2.32246995	0	-11.576581	15.90078068	-91.5376358	1.0
[Head]
10	0	1.409579992	0.1818799973	-3.578045845	9.204317093	-93.22494507	1.0
11	0	1.409579992	0.1818799973	-3.621516228	9.201129913	-93.21920013	1.0
12	0	1.409579992	0.1818799973	-3.670866489	9.225791931	-93.21504974	1.0
13	0	1.409579992	0.1818799973	-3.627468824	9.23975563	-93.22769165	1.0
[LeftShoulder]
10	0.3668199778	1.946700096	-0.02662999928	-16.919487	-12.22891903	0.5788637996	1.0
11	0.3668199778	1.946700096	-0.02662999928	-16.43617249	-12.32604027	0.3249758482	1.0
12	0.3668199778	1.946700096	-0.02662999928	-16.26203728	-12.32954121	0.1558907479	1.0
13	0.3668199778	1.946700096	-0.02662999928	-16.8914299	-12.34895611	0.1960095018	1.0
[LeftArm]
10	1.140689969	0	0	37.80396652	-0.5510579348	-60.78002548	1.0
11	1.140689969	0	0	37.97142029	-0.9555738568	-60.63352203	1.0
12	1.140689969	0	0	37.99130249	-1.052323341	-60.60630035	1.0
13	1.140689969	0	0	38.22862244	-0.3987567127	-60.72480774	1.0
[LeftForeArm]
10	2.749800205	0	0	54.97455597	-134.9958191	-22.96641731	1.0
11	2.749800205	0	0	55.9317131	-135.278595	-23.37533951	1.0
12	2.749800205	0	0	56.21111298	-135.3661957	-23.49888039	1.0
13	2.749800205	0	0	56.09846497	-135.3371582	-23.4561615	1.0
[LeftHand]
10	2.295179844	0	0	-0.3592005372	-20.11716461	17.28015137	1.0
11	2.295179844	0	0	-0.523222208	-19.96855164	17.26024818	1.0
12	2.295179844	0	0	-0.6072695851	-20.06533813	17.247015	1.0
13	2.295179844	0	0	-0.614810288	-19.98484039	17.39437103	1.0
[RightShoulder]
10	-0.3601199985	1.946700096	-0.02662999928	-7.652109623	2.855051517	173.8390198	1.0
11	-0.3601199985	1.946700096	-0.02662999928	-7.995447159	2.675774813	173.9531403	1.0
12	-0.3601199985	1.946700096	-0.02662999928	-7.990087032	2.778665066	173.9799347	1.0
13	-0.3601199985	1.946700096	-0.02662999928	-8.013510704	2.874055862	174.0774841	1.0
[RightArm]
10	-1.140689969	0	0	55.1219635	6.117383003	-105.9006042	1.0
11	-1.140689969	0	0	55.30622101	5.981182098	-106.0325928	1.0
12	-1.140689969	0	0	55.29161835	5.919141769	-106.0374146	1.0
13	-1.140689969	0	0	55.39165878	5.876908779	-106.0912399	1.0
[RightForeArm]
10	-2.749800205	0	0	-105.7790833	44.77736664	31.54743385	1.0
11	-2.749800205	0	0	-105.843895	44.75146484	31.49170303	1.0
12	-2.749800205	0	0	-105.6312714	44.63516235	31.57826996	1.0
13	-2.749800205	0	0	-105.3618317	44.48986816	31.69488525	1.0
[RightHand]
10	-2.295179844	0	0	1.54287219	17.32289696	155.4268036	1.0
11	-2.295179844	0	0	1.585236549	17.22312355	155.5513458	1.0
12	-2.295179844	0	0	1.519707561	17.17316246	155.6796417	1.0
13	-2.295179844	0	0	1.384758592	17.15835571	155.6415863	1.0
[LeftUpLeg]
10	0.9094099998	0	0	-7.670701027	4.187973022	94.65687561	1.0
11	0.9094099998	0	0	-7.696275234	4.178586006	94.76981354	1.0
12	0.9094099998	0	0	-7.44408989	4.222224236	94.79816437	1.0
13	0.9094099998	0	0	-7.163320541	4.150132656	94.82569122	1.0
[LeftLeg]
10	0	-4.498080254	0	7.361186028	-0.6805741787	86.7719574	1.0
11	0	-4.498080254	0	7.254584789	-0.7058191299	86.78223419	1.0
12	0	-4.498080254	0	6.864295483	-0.56650424	86.97045898	1.0
13	0	-4.498080254	0	6.436871529	-0.0918135345	87.25331116	1.0
[LeftFoot]
10	0	-3.729400158	0	-73.91912842	110.1813507	-25.06881142	1.0
11	0	-3.729400158	0	-74.23283386	110.3453674	-25.58611488	1.0
12	0	-3.729400158	0	-73.6219101	109.7783813	-25.53349304	1.0
13	0	-3.729400158	0	-74.05778503	109.400177	-26.37017822	1.0
[LeftToeBase]
10	0	-0.5911099911	1.364109993	0	0	0	1.0
11	0	-0.5911099911	1.364109993	0	0	0	1.0
12	0	-0.5911099911	1.364109993	0	0	0	1.0
13	0	-0.5911099911	1.364109993	0	0	0	1.0
[RightUpLeg]
10	-0.9094099998	0	0	3.369616985	-10.48916721	88.30325317	1.0
11	-0.9094099998	0	0	3.163067818	-10.47653961	88.50575256	1.0
12	-0.9094099998	0	0	3.109258413	-10.76253605	88.54563904	1.0
13	-0.9094099998	0	0	3.217205524	-10.78389835	88.60368347	1.0
[RightLeg]
10	0	-4.498080254	0	14.59544754	-3.88282609	86.99014282	1.0
11	0	-4.498080254	0	15.06171703	-4.015116215	86.88243103	1.0
12	0	-4.498080254	0	15.41931152	-3.799520016	86.93541718	1.0
13	0	-4.498080254	0	15.33255768	-3.939902306	87.0014267	1.0
[RightFoot]
10	0	-3.729400158	0	37.27854156	58.1258049	92.8807373	1.0
11	0	-3.729400158	0	37.17671967	58.19151688	92.82659912	1.0
12	0	-3.729400158	0	37.21209717	58.25409698	92.80157471	1.0
13	0	-3.729400158	0	37.13155365	58.43026352	92.74427032	1.0
[RightToeBase]
10	0	-0.5911099911	1.364109993	0	0	0	1.0
11	0	-0.5911099911	1.364109993	0	0	0	1.0
12	0	-0.5911099911	1.364109993	0	0	0	1.0
13	0	-0.5911099911	1.364109993	0	0	0	1.0
[EndOfFile]
